<?xml version="1.0" encoding="utf-8"?>
<!-- Generator: Adobe Illustrator 21.0.2, SVG Export Plug-In . SVG Version: 6.00 Build 0)  -->
<svg version="1.1" xmlns="http://www.w3.org/2000/svg" xmlns:xlink="http://www.w3.org/1999/xlink" x="0px" y="0px"
	 viewBox="0 0 480.5 480.5" style="enable-background:new 0 0 480.5 480.5;" xml:space="preserve">
<style type="text/css">
	.st0{display:none;}
	.st1{display:inline;}
	.st2{fill:#FFFFFF;}
</style>
<g id="Capa_1" class="st0">
	<g class="st1">
		<g>
			<path d="M236.2,44.3L460.5,312l20-16.7L249.5,19.7c-3.5-4.1-8.5-6.4-13.7-6.4c-5.2,0-10.2,2.5-13.5,6.7L0,295.4l20.3,16.4
				L236.2,44.3z"/>
			<path d="M232.9,68.7L64.4,277.4l33.3,189.7H366l49-189.7L240,68.7C238,66.3,234.8,66.3,232.9,68.7z M178.2,215
				c15-7.9,36.2,3,47.3,24.3c11.1,21.3,7.9,44.9-7.1,52.7c-15,7.9-36.2-3-47.3-24.3C159.9,246.4,163.1,222.8,178.2,215z
				 M123.1,323.9c-11.1-21.3-7.9-44.9,7.1-52.7c15-7.9,36.2,3,47.3,24.3c11.1,21.3,7.9,44.9-7.1,52.7
				C155.4,356.1,134.2,345.2,123.1,323.9z M350.2,271.2c15,7.8,18.2,31.5,7.1,52.7c-11.1,21.3-32.3,32.2-47.3,24.3
				c-15-7.8-18.2-31.5-7.1-52.7C314,274.2,335.2,263.3,350.2,271.2z M255,239.3c11.1-21.3,32.3-32.2,47.3-24.3
				c15,7.8,18.2,31.5,7.1,52.7c-11.1,21.3-32.3,32.2-47.3,24.3C247.1,284.2,243.9,260.6,255,239.3z M292.5,351c0,2.7-0.3,5.4-0.8,8
				c14.6,1.6,20.5,19.4,20.5,34.5c0,16.1-13.1,29.2-29.2,29.2c-14.5,0-22.8-1.7-40.1-10.8c-3.4,0.8-25.5,10.8-40.1,10.8
				c-16.1,0-29.2-13.1-29.2-29.2c0-15.6,6.7-33.9,22.2-34.7c-0.5-2.5-0.8-5.1-0.8-7.8c0-23.8,24.9-48.7,48.7-48.7
				C267.6,302.3,292.5,327.2,292.5,351z"/>
		</g>
	</g>
</g>
<g id="Capa_1_copy">
	<g>
		<path class="st2" d="M236.2,52.3L460.5,320l20-16.7L249.5,27.7c-3.5-4.1-8.5-6.4-13.7-6.4c-5.2,0-10.2,2.5-13.5,6.7L0,303.4
			l20.3,16.4L236.2,52.3z"/>
		<path class="st2" d="M240,76.7c-2-2.4-5.1-2.3-7.1,0.1L64.4,285.4l9.2,186.7h102.6v-89.3c0-33.7,30.3-60.9,63.9-60.9
			c33.7,0,63.9,27.3,63.9,60.9v89.3h103.5l7.3-186.7L240,76.7z"/>
	</g>
</g>
</svg>
